# xmcd
#
# Track frame offsets:
#	150
#	16153
#	33674
#	62751
#	84621
#	100286
#	122066
#	138595
#	158715
#	174761
#	192977
#
# Disc length: 2974 seconds
#
# Revision: 0
# Processed by: cddbd v1.5.2PL0 Copyright (c) Steve Scherf et al.
# Submitted via: dBpowerAMP V4.0
#
DISCID=8c0b9c0b
DTITLE=Southside Johnny and The Asbury Jukes - Jukebox [CD5 - Bonus Disc)
DYEAR=2007
DGENRE=Blues Rock
TTITLE0=Coming Back
TTITLE1=This Time Baby's Gone For Good
TTITLE2=Living With The Blues
TTITLE3=Sinful
TTITLE4=Take It Inside
TTITLE5=Without Love
TTITLE6=A Little Girl So Fine
TTITLE7=Make This World Stand Still
TTITLE8=Broke Down Piece Of Man
TTITLE9=Trapped Again
TTITLE10=Love Is A Sacrifice
EXTD=Southside Johnny and The Asbury Jukes - Jukebox [CD5 - Bonus Disc)  is entitled Jukestock: Selections From The Board - Recorded live at Jukestock in Tinton Falls, NJ, March 3, 2001. 
EXTT0=
EXTT1=
EXTT2=
EXTT3=
EXTT4=
EXTT5=
EXTT6=
EXTT7=
EXTT8=
EXTT9=
EXTT10=
PLAYORDER=
